<svg width="440" height="153" viewBox="0 0 440 153" fill="none" xmlns="http://www.w3.org/2000/svg">
    <g clip-path="url(#clip0_2241_27)">
        <path
            d="M0 40.6837C0 16.2294 15.8158 0 39.4338 0C48.5327 0 57.1994 3.02851 63.481 5.40784L72.3624 0V49.3403C53.7292 13.6327 46.1506 8.00749 34.2314 8.00749C24.2649 8.00749 17.1157 14.9311 17.1157 26.1874C17.1157 39.1709 33.5815 48.9085 48.5327 60.8111C64.1309 73.3628 78.4293 84.6162 78.4293 111.667C78.4293 138.718 59.5785 152.783 39.6484 152.783C30.1142 152.783 19.2831 150.621 9.09897 144.775L0 152.783V97.8171C10.3988 120.538 27.5145 142.396 44.1979 142.396C53.7292 142.396 61.5312 135.255 61.5312 122.703C61.5312 109.288 52.4323 103.228 37.481 91.7571C25.1324 82.6657 0 65.7871 0 40.6837Z"
            fill="#ffffff" />
        <path
            d="M82.4848 76.6087C82.4848 34.4063 116.931 0 159.179 0C201.427 0 235.659 34.6237 235.659 75.9595C235.659 117.295 201.645 152.783 159.179 152.783C116.713 152.783 82.4818 118.591 82.4818 76.6087H82.4848ZM220.06 59.9445C220.06 33.7601 201.859 15.3658 175.645 15.3658C137.081 15.3658 98.2977 53.8875 98.2977 92.841C98.2977 119.24 116.499 137.202 142.713 137.202C181.494 137.202 220.06 99.1154 220.06 59.9445Z"
            fill="#ffffff" />
        <path
            d="M255.509 144.775L263.744 152.133H237.311L245.546 144.775V7.57274L236.882 0.64917H268.949L296.463 85.6971L319.855 0.64917H352.354L342.823 7.57274V144.775L351.922 152.133H309.674L318.555 144.775V45.0105L289.955 153L255.506 40.901V144.775H255.509Z"
            fill="#ffffff" />
        <path
            d="M408.586 0.64917L431.116 144.775L439.997 152.133H397.531L406.63 144.775L402.731 119.454H379.116L375.216 144.775L383.451 152.133H357.236L365.47 144.775L386.485 8.00748L384.321 0.64917H408.586ZM380.636 109.499H401.219L390.603 41.5502L380.636 109.499Z"
            fill="#ffffff" />
    </g>
    <defs>
        <clipPath id="clip0_2241_27">
            <rect width="440" height="153" fill="white" />
        </clipPath>
    </defs>
</svg>